<?xml version="1.0" encoding="iso-8859-1"?>
<!-- Generator: Adobe Illustrator 16.0.0, SVG Export Plug-In . SVG Version: 6.00 Build 0)  -->
<!DOCTYPE svg PUBLIC "-//W3C//DTD SVG 1.1//EN" "http://www.w3.org/Graphics/SVG/1.1/DTD/svg11.dtd">
<svg height="275.028px" id="Capa_1" style="enable-background:new 0 0 175.018 275.028;" version="1.1"
     viewBox="40 133 375.028 275.028"
     width="375.028px" x="0px" xml:space="preserve"
     xmlns="http://www.w3.org/2000/svg"
     y="0px">
<g>
	<g>
		<rect height="11.572" width="243.783" x="57.559" y="363.456"/>
    <polygon points="175.988,355.473 182.344,355.473 215.259,355.473 219.884,355.473 259.178,355.473 237.219,322.535
			217.583,352.011 197.947,322.535 179.166,350.721 160.378,322.535 140.749,352.011 121.107,322.535 99.142,355.473
			138.442,355.473 143.055,355.473 		"/>
    <path d="M309.464,186.125c-4.346,1.534-9.923,6.675-13.56,10.369c-0.151-9.19-0.453-15.58-0.522-17.404h8.062v-11.41H69.067v11.41
			h9.138c-0.087,1.859-0.406,8.545-0.534,18.102c-3.573-3.497-8.308-7.604-12.112-8.946c-7.023-2.475-30.389,0-30.389,0v9.458
			c0,0,22.964-0.802,27.902,2.068c4.961,2.869,10.276,27.164,14.407,27.164c0.151,0,0.401,0,0.569,0
			c1.122,25.922,4.758,54.016,14.715,63.09H80.407v15.058h210.605v-15.058h-10.201c10.201-9.318,13.803-38.736,14.826-65.182
			c0.72,0,1.37,0,1.882,0c4.112,0,9.458-24.306,14.407-27.164c4.926-2.881,27.932-2.092,27.932-2.092v-9.451
			C339.835,186.125,316.435,183.674,309.464,186.125z M106.724,270.786c-2.226-4.393-4.416-9.714-6.071-15.639
			c-1.011-2.871-1.44-6.193-2.126-9.389c-0.813-3.3-0.883-6.506-1.133-9.62c-0.308-2.975-0.331-6.6-0.157-9.783
			c0.087-3.229,0.192-6.366,0.442-9.388c0.337-3.044,0.204-5.949,0.848-8.737c0.534-2.742,1.046-5.356,1.499-7.761
			c1.963-9.656,5.211-15.43,5.211-15.43s-0.035,1.644,0.25,4.479c0.273,2.853,0.261,6.675,0.889,11.438
			c0.406,4.718,0.691,10.108,1.499,15.94c0.407,2.905,0.645,5.879,0.895,8.9c0.105,3.091,0.75,5.729,1.156,9.109
			c0.807,6.482,1.737,11.92,2.556,17.707c0.784,5.728,1.499,11.131,2.132,15.731c1.15,9.329,1.423,16.126,1.423,16.126
			S111.15,279.627,106.724,270.786z"/>


	</g>
</g>
  <g>
</g>
  <g>
</g>
  <g>
</g>
  <g>
</g>
  <g>
</g>
  <g>
</g>
  <g>
</g>
  <g>
</g>
  <g>
</g>
  <g>
</g>
  <g>
</g>
  <g>
</g>
  <g>
</g>
  <g>
</g>
  <g>
</g>
</svg>
